<?xml version="1.0" standalone="no"?>
<!DOCTYPE svg PUBLIC "-//W3C//DTD SVG 20010904//EN"
 "http://www.w3.org/TR/2001/REC-SVG-20010904/DTD/svg10.dtd">
<svg version="1.0" xmlns="http://www.w3.org/2000/svg"
 width="578.000000pt" height="578.000000pt" viewBox="0 0 578.000000 578.000000"
 preserveAspectRatio="xMidYMid meet">
<metadata>
Created by potrace 1.14, written by Peter Selinger 2001-2017
</metadata>
<g transform="translate(0.000000,578.000000) scale(0.100000,-0.100000)"
fill="#000000" stroke="none">
<path d="M2735 5698 c-986 -46 -1895 -637 -2347 -1524 -214 -420 -308 -813
-308 -1284 0 -474 97 -877 314 -1296 273 -528 696 -945 1231 -1215 411 -207
803 -300 1265 -300 460 0 850 92 1261 298 707 353 1231 987 1448 1753 110 386
133 827 65 1235 -143 858 -704 1625 -1480 2022 -463 238 -924 337 -1449 311z"/>
</g>
</svg>
